<svg width="296" height="296" viewBox="0 0 296 296" fill="none" xmlns="http://www.w3.org/2000/svg">
<g clip-path="url(#clip0_11_375)">
<rect width="296" height="296" fill="white"/>
<path d="M132.711 20.7206C140.305 10.4283 155.695 10.4283 163.289 20.7205L173.316 34.311C178.142 40.8516 186.594 43.5979 194.343 41.1431L210.444 36.0423C222.638 32.1794 235.088 41.2248 235.182 54.0152L235.306 70.9043C235.366 79.0324 240.59 86.2222 248.301 88.7908L264.325 94.1281C276.461 98.1701 281.216 112.806 273.774 123.209L263.948 136.946C259.219 143.556 259.219 152.444 263.948 159.054L273.774 172.791C281.216 183.194 276.461 197.83 264.325 201.872L248.301 207.209C240.59 209.778 235.366 216.968 235.306 225.096L235.182 241.985C235.088 254.775 222.638 263.821 210.444 259.958L194.343 254.857C186.594 252.402 178.142 255.148 173.316 261.689L163.289 275.279C155.695 285.572 140.305 285.572 132.711 275.279L122.684 261.689C117.858 255.148 109.406 252.402 101.657 254.857L85.5558 259.958C73.3624 263.821 60.9124 254.775 60.8182 241.985L60.6939 225.096C60.634 216.968 55.4104 209.778 47.6986 207.209L31.6745 201.872C19.5392 197.83 14.7838 183.194 22.2256 172.791L32.0522 159.054C36.7813 152.444 36.7813 143.556 32.0522 136.946L22.2256 123.209C14.7838 112.806 19.5392 98.1701 31.6745 94.1281L47.6986 88.7908C55.4104 86.2222 60.634 79.0324 60.6939 70.9043L60.8182 54.0152C60.9124 41.2249 73.3623 32.1794 85.5558 36.0423L101.657 41.1431C109.406 43.5979 117.858 40.8516 122.684 34.311L132.711 20.7206Z" fill="#009DE0"/>
<mask id="path-2-inside-1_11_375" fill="white">
<path d="M246 148C246 135.13 243.465 122.387 238.54 110.497C233.615 98.6071 226.397 87.8037 217.296 78.7035C208.196 69.6034 197.393 62.3848 185.503 57.4598C173.613 52.5348 160.87 50 148 50L148 148H246Z"/>
</mask>
<path d="M246 148C246 135.13 243.465 122.387 238.54 110.497C233.615 98.6071 226.397 87.8037 217.296 78.7035C208.196 69.6034 197.393 62.3848 185.503 57.4598C173.613 52.5348 160.87 50 148 50L148 148H246Z" fill="url(#paint0_linear_11_375)" stroke="#009DE0" stroke-width="10" mask="url(#path-2-inside-1_11_375)"/>
<mask id="path-3-inside-2_11_375" fill="white">
<path d="M246 148C246 160.87 243.465 173.613 238.54 185.503C233.615 197.393 226.397 208.196 217.296 217.296C208.196 226.397 197.393 233.615 185.503 238.54C173.613 243.465 160.87 246 148 246L148 148H246Z"/>
</mask>
<path d="M246 148C246 160.87 243.465 173.613 238.54 185.503C233.615 197.393 226.397 208.196 217.296 217.296C208.196 226.397 197.393 233.615 185.503 238.54C173.613 243.465 160.87 246 148 246L148 148H246Z" fill="#37C3FF" stroke="#009DE0" stroke-width="10" mask="url(#path-3-inside-2_11_375)"/>
<mask id="path-4-inside-3_11_375" fill="white">
<path d="M50 148C50 135.13 52.5348 122.387 57.4598 110.497C62.3848 98.6071 69.6034 87.8037 78.7035 78.7035C87.8037 69.6034 98.6071 62.3848 110.497 57.4598C122.387 52.5348 135.13 50 148 50L148 148H50Z"/>
</mask>
<path d="M50 148C50 135.13 52.5348 122.387 57.4598 110.497C62.3848 98.6071 69.6034 87.8037 78.7035 78.7035C87.8037 69.6034 98.6071 62.3848 110.497 57.4598C122.387 52.5348 135.13 50 148 50L148 148H50Z" fill="#37C3FF" stroke="#009DE0" stroke-width="10" mask="url(#path-4-inside-3_11_375)"/>
<mask id="path-5-inside-4_11_375" fill="white">
<path d="M50 148C50 160.87 52.5348 173.613 57.4598 185.503C62.3848 197.393 69.6034 208.196 78.7035 217.296C87.8037 226.397 98.6071 233.615 110.497 238.54C122.387 243.465 135.13 246 148 246L148 148H50Z"/>
</mask>
<path d="M50 148C50 160.87 52.5348 173.613 57.4598 185.503C62.3848 197.393 69.6034 208.196 78.7035 217.296C87.8037 226.397 98.6071 233.615 110.497 238.54C122.387 243.465 135.13 246 148 246L148 148H50Z" fill="#37C3FF" stroke="#009DE0" stroke-width="10" mask="url(#path-5-inside-4_11_375)"/>
</g>
<defs>
<linearGradient id="paint0_linear_11_375" x1="148" y1="50" x2="148" y2="148" gradientUnits="userSpaceOnUse">
<stop stop-color="#CBFF3A"/>
<stop offset="1" stop-color="#64FF02"/>
</linearGradient>
<clipPath id="clip0_11_375">
<rect width="296" height="296" fill="white"/>
</clipPath>
</defs>
</svg>
