<!-- Made by me :D -->
<svg width="233" height="233" viewBox="0 0 233 233" fill="none" xmlns="http://www.w3.org/2000/svg">
  <path fill-rule="evenodd" clip-rule="evenodd"
    d="M129.435 7.50504C123.663 -2.50168 109.221 -2.50168 103.448 7.50505L90.5033 29.947C87.1088 35.8316 80.1833 38.7002 73.6221 36.9394L48.5995 30.2242C37.4421 27.23 27.23 37.4421 30.2242 48.5995L36.9394 73.622C38.7002 80.1833 35.8316 87.1088 29.947 90.5033L7.50504 103.448C-2.50168 109.221 -2.50168 123.663 7.50505 129.435L29.947 142.38C35.8316 145.775 38.7002 152.7 36.9394 159.262L30.2242 184.284C27.23 195.441 37.4421 205.654 48.5995 202.659L73.6221 195.944C80.1833 194.183 87.1088 197.052 90.5033 202.937L103.448 225.379C109.221 235.385 123.663 235.385 129.435 225.379L142.38 202.937C145.775 197.052 152.7 194.183 159.262 195.944L184.284 202.659C195.441 205.654 205.654 195.441 202.659 184.284L195.944 159.262C194.183 152.7 197.052 145.775 202.937 142.38L225.379 129.435C235.385 123.663 235.385 109.221 225.379 103.448L202.937 90.5033C197.052 87.1088 194.183 80.1833 195.944 73.6221L202.659 48.5995C205.654 37.4421 195.441 27.23 184.284 30.2242L159.262 36.9394C152.7 38.7002 145.775 35.8316 142.38 29.947L129.435 7.50504ZM116.442 178.561C150.749 178.561 178.561 150.749 178.561 116.442C178.561 82.1342 150.749 54.3224 116.442 54.3224C82.1342 54.3224 54.3224 82.1342 54.3224 116.442C54.3224 150.749 82.1342 178.561 116.442 178.561Z"
    fill="white" />
</svg>